<!-- THIS LOGO IS TAKEN FROM https://thenounproject.com/search/?q=search&i=3719635 I DON'T OWN THIS LOGO I JUST USE IT FOR LEARNING PURPOSE -->
<svg xmlns="http://www.w3.org/2000/svg" xmlns:xlink="http://www.w3.org/1999/xlink" height="300px" width="300px" fill="#0275d8" version="1.1" x="0px" y="0px" viewBox="0 0 64 64" style="enable-background:new 0 0 64 64;" xml:space="preserve"><g><path d="M60,1H28c-1.654,0-3,1.346-3,3v12.517C18.907,19.269,15,25.267,15,32c0,3.302,0.961,6.377,2.597,8.989L15,43.586l-1-1   L2.535,54.051C1.545,55.041,1,56.357,1,57.758C1,60.648,3.352,63,6.242,63c1.4,0,2.717-0.545,3.707-1.535L21.414,50l-1-1   l2.597-2.597C25.623,48.039,28.698,49,32,49c6.733,0,12.731-3.907,15.483-10H60c1.654,0,3-1.346,3-3V4C63,2.346,61.654,1,60,1z    M28,3h32c0.552,0,1,0.448,1,1v5H27V4C27,3.448,27.448,3,28,3z M28,39h12.461c-2.072,2.495-5.166,4-8.461,4   c-6.065,0-11-4.935-11-11c0-3.294,1.505-6.388,4-8.461V36C25,37.654,26.346,39,28,39z M8.535,60.051   C7.923,60.663,7.108,61,6.242,61C4.454,61,3,59.546,3,57.758c0-0.866,0.337-1.681,0.949-2.293L14,45.414L18.586,50L8.535,60.051z    M19,47.586L16.414,45l2.353-2.353c0.767,0.952,1.634,1.818,2.586,2.586L19,47.586z M32,47c-8.271,0-15-6.729-15-15   c0-5.632,3.098-10.682,8-13.262v2.314c-3.713,2.38-6,6.519-6,10.948c0,7.168,5.832,13,13,13c4.429,0,8.568-2.287,10.948-6h2.314   C42.682,43.902,37.632,47,32,47z M60,37H28c-0.552,0-1-0.448-1-1V11h34v25C61,36.552,60.552,37,60,37z"/><rect x="37" y="5" width="2" height="2"/><rect x="33" y="5" width="2" height="2"/><rect x="29" y="5" width="2" height="2"/><path d="M56,13H32c-1.654,0-3,1.346-3,3v8c0,1.654,1.346,3,3,3h24c1.654,0,3-1.346,3-3v-8C59,14.346,57.654,13,56,13z M31,24v-8   c0-0.552,0.448-1,1-1h13v10H32C31.448,25,31,24.552,31,24z M57,24c0,0.552-0.448,1-1,1h-9V15h9c0.552,0,1,0.448,1,1V24z"/><polygon points="52,20.333 49.8,17.4 48.2,18.6 52,23.667 55.8,18.6 54.2,17.4  "/><path d="M29,35h6v-6h-6V35z M31,31h2v2h-2V31z"/><path d="M37,35h6v-6h-6V35z M39,31h2v2h-2V31z"/><path d="M45,35h6v-6h-6V35z M47,31h2v2h-2V31z"/><path d="M53,35h6v-6h-6V35z M55,31h2v2h-2V31z"/><circle cx="6" cy="58" r="1"/><rect x="43" y="47" width="18" height="2"/><rect x="43" y="51" width="18" height="2"/><rect x="47" y="55" width="2" height="2"/><rect x="43" y="55" width="2" height="2"/><rect x="55" y="55" width="2" height="2"/><rect x="51" y="55" width="2" height="2"/><rect x="59" y="55" width="2" height="2"/><path d="M10,35H4c-1.654,0-3,1.346-3,3s1.346,3,3,3h11v-2H4c-0.552,0-1-0.448-1-1s0.448-1,1-1h6c1.654,0,3-1.346,3-3s-1.346-3-3-3   H7c-0.552,0-1-0.448-1-1s0.448-1,1-1h3c1.654,0,3-1.346,3-3s-1.346-3-3-3H4c-0.552,0-1-0.448-1-1s0.448-1,1-1h8   c1.654,0,3-1.346,3-3s-1.346-3-3-3h-2c-0.552,0-1-0.448-1-1s0.448-1,1-1h11v-2H10c-1.654,0-3,1.346-3,3s1.346,3,3,3h2   c0.552,0,1,0.448,1,1s-0.448,1-1,1H4c-1.654,0-3,1.346-3,3s1.346,3,3,3h6c0.552,0,1,0.448,1,1s-0.448,1-1,1H7c-1.654,0-3,1.346-3,3   s1.346,3,3,3h3c0.552,0,1,0.448,1,1S10.552,35,10,35z"/></g></svg>